<svg width="41" height="40" viewBox="0 0 41 40" fill="none" xmlns="http://www.w3.org/2000/svg">
<path d="M19.5 13.8822V27.2402C19.5 28.2121 18.7121 29 17.7402 29C16.9965 29 16.333 28.5325 16.0829 27.8321L13.9365 21.6829M26.5 21C28.1569 21 29.5 19.6569 29.5 18C29.5 16.3431 28.1569 15 26.5 15M13.9365 21.6829C12.5043 21.0741 11.5 19.6543 11.5 18C11.5 15.7909 13.2909 14 15.5 14H17.3321C21.4327 14 24.9569 12.7659 26.5 11L26.5 25C24.9569 23.2341 21.4327 22 17.3321 22L15.5 22C14.9452 22 14.4168 21.887 13.9365 21.6829Z" stroke="white" stroke-width="2" stroke-linecap="round" stroke-linejoin="round"/>
</svg>
