<svg width="16" height="16" viewBox="0 0 16 16" fill="none" xmlns="http://www.w3.org/2000/svg">
<path d="M1.60238 4.70715L7.99997 7.90555L14.3976 4.70715C14.3739 4.29951 14.1952 3.91634 13.8982 3.63613C13.6012 3.35592 13.2083 3.19988 12.8 3.19995H3.19998C2.79164 3.19988 2.39873 3.35592 2.10172 3.63613C1.8047 3.91634 1.62606 4.29951 1.60238 4.70715Z" fill="#6366F1"/>
<path d="M14.4 6.49435L7.99997 9.69435L1.59998 6.49435V11.2C1.59998 11.6243 1.76855 12.0313 2.0686 12.3313C2.36866 12.6314 2.77563 12.8 3.19998 12.8H12.8C13.2243 12.8 13.6313 12.6314 13.9313 12.3313C14.2314 12.0313 14.4 11.6243 14.4 11.2V6.49435Z" fill="#6366F1"/>
</svg>
